# xmcd
#
# Track frame offsets:
#	150
#	9485
#	20680
#	37933
#	52090
#	68025
#	85215
#	97115
#	108395
#	119278
#	134488
#	153413
#	166783
#	181728
#	201890
#	222103
#	257753
#
# Disc length: 3712 seconds
#
# Revision: 1
# Processed by: cddbd v1.5.1PL0 Copyright (c) Steve Scherf et al.
# Submitted via: CDex 1.50Beta5
#
DISCID=e50e7e11
DTITLE=幸田聡子 - Violin Collection(2)
DYEAR=1900
DGENRE=Violin
TTITLE0=幸田聡子/君を愛す
TTITLE1=幸田聡子/愛の挨拶
TTITLE2=幸田聡子/会いに生き恋いに生き
TTITLE3=幸田たか子/アリオソーロ
TTITLE4=幸田聡子/ああ愛しきヴエルメランド
TTITLE5=幸田聡子/ローレライ
TTITLE6=幸田聡子/甘い思い出
TTITLE7=幸田聡子/デュエット
TTITLE8=幸田聡子/カロミオベン
TTITLE9=幸田聡子/愛の喜び
TTITLE10=幸田聡子/なつかしき愛の唄
TTITLE11=幸田聡子/メロディ
TTITLE12=幸田聡子/花の歌
TTITLE13=幸田聡子/気まぐれ女
TTITLE14=幸田聡子/ロマンス
TTITLE15=幸田聡子/ジークフリート牧歌
TTITLE16=幸田聡子/オメイジンググレース
EXTD=
EXTT0=
EXTT1=
EXTT2=
EXTT3=
EXTT4=
EXTT5=
EXTT6=
EXTT7=
EXTT8=
EXTT9=
EXTT10=
EXTT11=
EXTT12=
EXTT13=
EXTT14=
EXTT15=
EXTT16=
PLAYORDER=
